<svg width="213" height="85" viewBox="0 0 213 85" fill="none" xmlns="http://www.w3.org/2000/svg">
<path fill-rule="evenodd" clip-rule="evenodd" d="M69.92 13.28C68.58 13.28 67.66 13.86 67.66 14.74C67.66 15.66 68.56 16.12 69.84 16.12C71.32 16.12 71.78 15.38 71.78 14.1V13.56C71.18 13.38 70.56 13.28 69.92 13.28ZM71.4 1.69998H73.66C73.58 2.09998 73.54 2.53998 73.52 2.93998C73.5 3.43998 73.48 4.29998 73.46 5.21998C74.64 5.11998 75.76 4.95998 76.78 4.75998V6.69998C75.74 6.85998 74.62 6.99998 73.46 7.07998C73.4918 8.66873 73.574 10.1439 73.6466 11.4453L73.6466 11.4458L73.6467 11.4464C73.6654 11.7829 73.6836 12.1078 73.7 12.42C75.34 13.08 76.62 14.1 77.62 15L76.54 16.68C75.6 15.8 74.7 15.06 73.78 14.48V14.56C73.78 16.4 72.9 17.98 70.12 17.98C67.4 17.98 65.82 16.86 65.82 14.94C65.82 13.1 67.4 11.74 70.08 11.74C70.66 11.74 71.2 11.78 71.7 11.88L71.6738 11.273C71.6184 9.99601 71.5544 8.52145 71.52 7.17998C70.96 7.19998 70.38 7.21998 69.82 7.21998C68.66 7.21998 67.58 7.15998 66.4 7.07998V5.19998C67.54 5.31998 68.64 5.37998 69.82 5.37998C70.38 5.37998 70.96 5.35998 71.52 5.33998C71.52 4.75469 71.5131 4.21736 71.5075 3.77209V3.77193L71.5074 3.77097V3.77048V3.77004C71.5034 3.45544 71.5 3.18689 71.5 2.97998C71.5 2.63998 71.46 2.07998 71.4 1.69998ZM61.64 1.67998L63.84 1.87998C63.7 2.23998 63.5 3.05998 63.42 3.41998C63.06 5.03998 62.46 9.19998 62.46 11.34C62.46 12.06 62.5 12.74 62.6 13.48C62.8641 12.758 63.2213 11.912 63.5213 11.2013L63.64 10.92L64.64 11.7C64.5825 11.868 64.5226 12.0424 64.4612 12.2211L64.4594 12.2262L64.4593 12.2264C63.9657 13.6628 63.3777 15.3739 63.2 16.28C63.14 16.56 63.1 16.96 63.1 17.2C63.1105 17.305 63.1155 17.4375 63.1207 17.5774C63.1255 17.7039 63.1305 17.8365 63.14 17.96L61.38 18.08C60.98 16.68 60.6 14.44 60.6 11.72C60.6 9.06624 61.1144 5.72125 61.3938 3.9045L61.3941 3.90258L61.3951 3.8958C61.4269 3.6896 61.4555 3.50324 61.48 3.33998C61.56 2.83998 61.62 2.21998 61.64 1.67998ZM74.2 1.33998L75.34 0.999985C75.72 1.73998 76.22 2.95998 76.48 3.75998L75.28 4.15998C75 3.27998 74.58 2.13998 74.2 1.33998ZM76.22 0.739984L77.38 0.359985C77.76 1.11998 78.26 2.31998 78.54 3.11998L77.36 3.49998C77.06 2.61998 76.64 1.49998 76.22 0.739984ZM9.65 36.854H39.674V41.876H9.65V36.854ZM34.868 77.462V72.602H14.024V77.462H34.868ZM14.024 84.644H7.706V67.256H41.51V84.482H34.868V82.754H14.024V84.644ZM40.592 64.772H8.624V59.696H40.592V64.772ZM8.624 52.136H40.592V57.212H8.624V52.136ZM0.145996 49.76V44.306H49.016V49.76H0.145996ZM72.398 45.494H67.106V47.978H74.342V44.468H80.336V47.978H88.652V45.71H84.548V42.2H72.398V45.494ZM80.336 55.43H88.652V52.892H80.336V55.43ZM103.016 68.714V73.628H86.816C91.406 76.166 97.832 78.056 104.15 78.92C102.692 80.216 100.964 82.754 100.046 84.482C93.188 83.024 86.492 80 81.524 75.95V84.698H75.26V76.382C70.13 79.946 63.218 82.808 56.792 84.32C55.874 82.754 54.146 80.432 52.85 79.136C58.898 78.11 65.648 76.112 70.454 73.628H54.146V68.714H75.26V66.068H60.734V52.892H54.47V47.978H60.734V44.792H66.026V42.2H54.416V37.286H66.026V34.316H72.398V37.286H84.548V34.316H90.974V37.286H102.692V42.2H90.974V44.846H94.97V47.978H102.584V52.892H94.97V59.102H74.342V52.892H67.106V61.1H101.072V66.068H81.524V68.714H103.016ZM133.742 39.932C147.134 39.932 155.558 49.22 155.558 60.992C155.558 72.386 148.592 80.432 134.984 82.538L130.934 76.112C132.986 75.896 134.498 75.572 135.956 75.248C142.868 73.628 148.268 68.66 148.268 60.776C148.268 53.324 144.218 47.762 136.928 46.52C136.172 51.11 135.254 56.078 133.688 61.154C130.448 72.062 125.804 78.758 119.918 78.758C113.924 78.758 108.956 72.17 108.956 63.044C108.956 50.57 119.756 39.932 133.742 39.932ZM129.584 46.682C120.674 48.518 115.868 56.402 115.868 62.342C115.868 67.796 118.028 70.442 120.134 70.442C122.402 70.442 124.508 67.04 126.722 59.75C127.964 55.754 128.99 51.164 129.584 46.682ZM210.206 46.79V53.162H192.548C197.03 61.424 204.59 69.47 212.528 73.79C210.962 75.086 208.748 77.624 207.722 79.406C200.918 75.032 194.708 68.12 189.956 60.344V84.698H183.098V60.614C178.4 68.444 172.19 75.302 165.278 79.622C164.198 77.948 161.984 75.464 160.472 74.114C168.518 69.794 175.862 61.64 180.29 53.162H162.956V46.79H183.098V34.262H189.956V46.79H210.206ZM8.54 2.73998V4.81998C10.14 4.93998 11.88 5.03998 13.92 5.03998C15.78 5.03998 18.1 4.89998 19.48 4.79998V2.71998C18 2.85998 15.84 2.99998 13.9 2.99998C11.86 2.99998 10 2.91998 8.54 2.73998ZM9.74 10.98L7.68 10.8C7.5 11.58 7.28 12.54 7.28 13.62C7.28 16.24 9.6 17.66 13.9 17.66C16.72 17.66 19.2 17.38 20.76 16.96L20.74 14.76C19.12 15.26 16.56 15.56 13.82 15.56C10.76 15.56 9.36 14.56 9.36 13.14C9.36 12.44 9.5 11.74 9.74 10.98ZM30.34 1.27998L28.36 2.09998C29.3 4.23998 30.3 6.49998 31.22 8.17998C29.18 9.61998 27.82 11.26 27.82 13.38C27.82 16.58 30.66 17.68 34.52 17.68C37.06 17.68 39.3 17.48 40.88 17.2L40.9 14.92C39.26 15.34 36.58 15.64 34.44 15.64C31.46 15.64 29.96 14.72 29.96 13.16C29.96 11.7 31.08 10.44 32.84 9.27998C34.3223 8.31259 36.2672 7.3452 37.6774 6.64372L37.6776 6.64363C38.0749 6.44599 38.4298 6.26946 38.72 6.11998C39.36 5.79998 39.92 5.49998 40.44 5.17998L39.34 3.35998C38.88 3.73998 38.4 4.03998 37.74 4.41998C37.3986 4.61038 36.9559 4.84387 36.453 5.10915L36.4529 5.10917C35.4237 5.65202 34.1422 6.32795 32.96 7.03998C32.12 5.47998 31.14 3.43998 30.34 1.27998ZM186.9 3.27998L186.84 3.09998C186.66 2.45998 186.46 1.77998 186.22 1.11998L188.36 0.879984C188.44 1.61998 188.6 2.37998 188.78 3.13998C190.18 2.95998 191.54 2.65998 192.82 2.23998L193.08 4.05998C191.96 4.37998 190.6 4.65998 189.24 4.83998C189.281 4.96218 189.32 5.08267 189.358 5.20099C189.452 5.48935 189.541 5.76472 189.64 6.01998C189.715 6.23223 189.798 6.45226 189.883 6.68009C189.935 6.81723 189.987 6.9572 190.04 7.09998C191.68 6.89998 193 6.55998 193.96 6.25998L194.28 8.13998C193.32 8.37998 192.14 8.61998 190.82 8.79998C191.2 9.57998 191.62 10.32 192.06 10.98C192.3 11.34 192.56 11.62 192.88 11.92L191.88 13.4C190.76 13.14 188.76 12.92 187.36 12.78L187.52 11.26C188.48 11.36 189.68 11.48 190.3 11.54C189.78 10.72 189.32 9.85998 188.94 9.01998C186.5 9.21998 183.24 9.21998 180.18 9.01998L180.08 7.15998C183.08 7.45998 185.94 7.45998 188.2 7.27998C188.08 6.97998 187.96 6.67998 187.86 6.39998C187.749 6.07925 187.653 5.78135 187.563 5.50157C187.507 5.32775 187.454 5.16093 187.4 4.99998C185.48 5.09998 183.08 5.07998 180.58 4.83998L180.46 3.01998C182.84 3.27998 185.02 3.37998 186.9 3.27998ZM181.44 11.22L183.4 11.6C182.92 12.28 182.54 12.98 182.54 13.84C182.54 15.42 183.98 16.16 186.9 16.16C188.78 16.16 190.34 16.02 191.78 15.72L191.68 17.74C190.28 17.96 188.6 18.1 186.92 18.1C182.96 18.1 180.64 16.92 180.6 14.22C180.58 13.02 180.98 12.12 181.44 11.22Z" fill="white"/>
</svg>
